# xmcd
#
# Track frame offsets: 
#        150
#        20008
#        35463
#        53245
#        64651
#        82225
#        95522
#        107850
#        122496
#        137617
#
# Disc length: 2149 seconds
#
# Revision: 0
# Processed by: cddbd v1.5.2PL0 Copyright (c) Steve Scherf et al.
# Submitted via: ExactAudioCopy v0.99pb5
#
DISCID=8708630a
DTITLE=Firebird - Double Diamond
DYEAR=2010
DGENRE=Stoner
TTITLE0=Soul Saviour
TTITLE1=Ruined
TTITLE2=Bright Lights
TTITLE3=For Crying out Loud
TTITLE4=Farewell
TTITLE5=A Wing and a Prayer
TTITLE6=Pound of Flesh
TTITLE7=Arabesque
TTITLE8=Lose Your Delusions
TTITLE9=Pantomime
EXTD=
EXTT0=
EXTT1=
EXTT2=
EXTT3=
EXTT4=
EXTT5=
EXTT6=
EXTT7=
EXTT8=
EXTT9=
PLAYORDER=
